<?xml version="1.0" encoding="UTF-8"?>
<svg xmlns="http://www.w3.org/2000/svg" viewBox="0 0 544.26 544.26">
  <defs>
    <style>
      .cls-1 {
        fill: #ec1c24;
      }

      .cls-2 {
        fill: #00692f;
        stroke: #00692f;
        stroke-width: 5px;
      }

      .cls-2, .cls-3 {
        stroke-linecap: round;
        stroke-linejoin: round;
      }

      .cls-4 {
        fill: #ed1c24;
      }

      .cls-3 {
        stroke: #000;
        stroke-width: 2px;
      }
    </style>
  </defs>
  <g id="arrows">
    <g>
      <path class="cls-3" d="M161.74,90.94l42.93,74.36c2.67-1.68,5.41-3.27,8.21-4.75l-42.93-74.36,10.93-6.31-35.51-26.81,5.44,44.17,10.93-6.31Z"/>
      <path class="cls-3" d="M85.68,170.48l74.36,42.93c1.48-2.8,3.07-5.54,4.75-8.21l-74.36-42.93,6.31-10.93-44.16-5.46,26.8,35.53,6.31-10.93Z"/>
      <path class="cls-3" d="M267.39,145.97c1.57-.06,3.15-.1,4.74-.1s3.17.04,4.74.1V60.09h12.62l-17.35-40.98-17.37,40.98h12.62v85.89Z"/>
      <path class="cls-3" d="M525.66,272.66l-40.98-17.37v12.62h-85.88c.06,1.57.1,3.15.1,4.74s-.04,3.17-.1,4.74h85.88v12.62l40.98-17.35Z"/>
      <path class="cls-3" d="M379.47,205.18c1.68,2.67,3.27,5.41,4.75,8.21l74.36-42.93,6.31,10.93,26.81-35.51-44.17,5.44,6.31,10.93-74.36,42.93Z"/>
      <path class="cls-3" d="M331.36,160.55c2.8,1.48,5.54,3.07,8.21,4.75l42.93-74.36,10.93,6.31,5.46-44.16-35.53,26.8,10.93,6.31-42.93,74.36Z"/>
      <path class="cls-3" d="M59.58,277.39h85.88c-.06-1.57-.1-3.15-.1-4.74s.04-3.17.1-4.74H59.58v-12.62l-40.98,17.37,40.98,17.35v-12.62Z"/>
    </g>
  </g>
  <g id="qmail-logo">
    <path class="cls-2" d="M268.13,114.6c-86.5,0-156.63,70.13-156.63,156.63,0,69.65,45.46,128.66,108.32,149.03v-109.29c-8.9-10.81-14.25-24.65-14.25-39.74,0-34.55,28.01-62.55,62.55-62.55s62.55,28.01,62.55,62.55c0,21.78-11.14,40.95-28.02,52.15v-29.64h-69.06v222.9h69.06v-92.62c69.89-15.73,122.1-78.16,122.1-152.8,0-86.5-70.13-156.63-156.63-156.63Z"/>
    <rect class="cls-1" x="260.15" y="318.94" width="15.97" height="168.08" rx="7.98" ry="7.98"/>
  </g>
  <g id="DENIED">
    <path class="cls-4" d="M271.84,148.94c-67.93,0-123.19,55.26-123.19,123.19s55.26,123.19,123.19,123.19,123.19-55.26,123.19-123.19-55.26-123.19-123.19-123.19ZM383.03,272.13c0,24.9-8.23,47.91-22.1,66.46l-155.55-155.55c18.55-13.88,41.57-22.1,66.46-22.1,61.31,0,111.19,49.88,111.19,111.19ZM160.65,272.13c0-24.9,8.23-47.91,22.1-66.46l155.55,155.55c-18.55,13.88-41.56,22.1-66.46,22.1-61.31,0-111.19-49.88-111.19-111.19Z"/>
  </g>
</svg>