<?xml version="1.0" encoding="UTF-8"?>
<svg xmlns="http://www.w3.org/2000/svg" viewBox="0 0 493.93 493.93">
  <defs>
    <style>
      .cls-1 {
        fill: #0e4194;
      }

      .cls-2 {
        fill: #ec1c24;
      }

      .cls-3 {
        fill: #231f20;
        stroke: #231f20;
        stroke-linecap: round;
        stroke-linejoin: round;
        stroke-width: 2px;
      }

      .cls-4 {
        fill: none;
        stroke: #ec1c24;
        stroke-miterlimit: 10;
        stroke-width: 25px;
      }
    </style>
  </defs>
  <g id="not_mail" data-name="not mail">
    <path d="M342.24,411.15c-3.79,0-7.41.75-10.73,2.09-3.31-1.34-6.93-2.09-10.73-2.09-15.8,0-28.6,12.81-28.6,28.6v28.6h21.45v-28.6c0-1.97,1.6-3.58,3.58-3.58s3.58,1.6,3.58,3.58v28.6h21.45v-28.6c0-1.97,1.6-3.58,3.58-3.58s3.58,1.6,3.58,3.58v28.6h21.45v-28.6c0-15.8-12.81-28.6-28.6-28.6Z"/>
    <path d="M405.57,411.15c-15.8,0-28.6,12.81-28.6,28.6s12.81,28.6,28.6,28.6v-21.45c-3.95,0-7.15-3.2-7.15-7.15s3.2-7.15,7.15-7.15,7.15,3.2,7.15,7.15v28.6h21.45v-28.6c0-15.8-12.81-28.6-28.6-28.6Z"/>
    <rect x="444.13" y="411.83" width="21.45" height="57.2"/>
    <rect x="473.84" y="386.64" width="21.45" height="82.23"/>
    <g>
      <path d="M132.09,410.96c-2.79,2.79-7.32,2.79-10.11,0-2.79-2.79-2.79-7.32,0-10.11,2.79-2.79,7.32-2.79,10.11,0,2.79,2.79,2.79,7.32,0,10.11ZM147.26,385.68c-11.17-11.17-29.28-11.17-40.45,0-11.17,11.17-11.17,29.28,0,40.45s29.28,11.17,40.45,0,11.17-29.28,0-40.45Z"/>
      <path d="M102.84,341.26c-11.17-11.17-29.28-11.17-40.45,0l-20.22,20.22,15.17,15.17.64-.64,19.59-19.59c2.79-2.79,7.32-2.79,10.11,0s2.79,7.32,0,10.11l-19.59,19.59-.64.64,15.17,15.17,20.22-20.22c11.17-11.17,11.17-29.28,0-40.45Z"/>
      <path d="M175.53,446.62l15.17-15.17-5.06-5.06,10.11-10.11-15.17-15.17-30.34,30.34c-11.17,11.17-11.17,29.28,0,40.45l15.17-15.17c-2.79-2.79-2.79-7.32,0-10.11l5.06-5.06,5.06,5.06Z"/>
    </g>
    <circle cx="454.85" cy="398.44" r="10.73"/>
  </g>
  <g id="arrows">
    <g>
      <path class="cls-3" d="M149.7,86.31l38.26,66.27c2.38-1.5,4.82-2.91,7.32-4.23l-38.26-66.26,9.74-5.62-31.65-23.89,4.85,39.37,9.74-5.62Z"/>
      <path class="cls-3" d="M81.92,157.2l66.26,38.26c1.32-2.5,2.73-4.94,4.23-7.32l-66.27-38.26,5.62-9.74-39.36-4.87,23.88,31.67,5.62-9.74Z"/>
      <path class="cls-3" d="M243.85,135.35c1.4-.05,2.81-.09,4.23-.09s2.82.04,4.23.09V58.82h11.25l-15.46-36.52-15.48,36.52h11.25v76.54Z"/>
      <path class="cls-3" d="M474.01,248.25l-36.52-15.48v11.25h-76.54c.05,1.4.09,2.81.09,4.23s-.04,2.82-.09,4.23h76.54v11.25l36.52-15.46Z"/>
      <path class="cls-3" d="M343.73,188.12c1.5,2.38,2.91,4.82,4.23,7.32l66.26-38.26,5.62,9.74,23.89-31.65-39.37,4.85,5.62,9.74-66.27,38.26Z"/>
      <path class="cls-3" d="M300.86,148.34c2.5,1.32,4.94,2.73,7.32,4.23l38.26-66.27,9.74,5.62,4.87-39.36-31.67,23.88,9.74,5.62-38.26,66.26Z"/>
      <path class="cls-3" d="M58.66,252.46h76.54c-.05-1.4-.09-2.81-.09-4.23s.04-2.82.09-4.23H58.66v-11.25l-36.52,15.48,36.52,15.46v-11.25Z"/>
    </g>
  </g>
  <g id="DENIED">
    <g>
      <path class="cls-1" d="M406.26,247.42c-.31-87.96-71.33-158.72-159.29-158.72-87.99,0-159.17,71.06-159.3,159.05-.1,65.07,38.83,121.06,94.67,145.87,2.15.95,4.57-.62,4.57-2.97v-142.66h0c0-34.12,28.46-61.6,62.93-59.98,30.85,1.44,55.83,26.56,57.12,57.42,1.14,27.27-15.93,50.69-40.03,59.19v101.42c78.73-9.85,139.61-77.14,139.33-158.61Z"/>
      <path class="cls-1" d="M280,304.91v-12.97c0-6.78-5.5-12.27-12.27-12.27h-42.35c-6.78,0-12.27,5.49-12.27,12.27,0,30.64,0,108.07,0,108.07v59.41c0,6.78,5.5,12.27,12.27,12.27h42.35c6.78,0,12.27-5.5,12.27-12.27v-53.28c.27-.03.54-.07.82-.11v-101.42c-.27.1-.54.2-.82.29Z"/>
    </g>
    <rect class="cls-2" x="238.98" y="318.48" width="15.97" height="125.28" rx="7.98" ry="7.98"/>
    <g>
      <circle class="cls-4" cx="244.58" cy="247.99" r="122.93"/>
      <line class="cls-4" x1="157.66" y1="161.07" x2="331.51" y2="334.92"/>
    </g>
  </g>
</svg>