<?xml version="1.0" encoding="UTF-8"?>
<svg xmlns="http://www.w3.org/2000/svg" viewBox="0 0 571.4 464.17">
  <defs>
    <style>
      .cls-1 {
        fill: #ec1c24;
      }

      .cls-2 {
        fill: #00692f;
        stroke: #00692f;
        stroke-width: 5px;
      }

      .cls-2, .cls-3 {
        stroke-linecap: round;
        stroke-linejoin: round;
      }

      .cls-4 {
        fill: #ed1c24;
      }

      .cls-3 {
        fill: #231f20;
        stroke: #231f20;
        stroke-width: 2px;
      }
    </style>
  </defs>
  <g id="not_mail" data-name="not mail">
    <g>
      <path d="M130.49,423.88c0,3.95-3.2,7.15-7.15,7.15s-7.15-3.2-7.15-7.15,3.2-7.15,7.15-7.15,7.15,3.2,7.15,7.15ZM123.34,395.28c-15.8,0-28.6,12.81-28.6,28.6s12.81,28.6,28.6,28.6,28.6-12.81,28.6-28.6-12.81-28.6-28.6-28.6Z"/>
      <path d="M60.52,395.28c-15.8,0-28.6,12.81-28.6,28.6v28.6h21.45v-28.6c0-3.95,3.2-7.15,7.15-7.15s7.15,3.2,7.15,7.15v28.6h21.45v-28.6c0-15.8-12.81-28.6-28.6-28.6Z"/>
      <path d="M186.41,418.38v-21.45h-7.15v-14.3h-21.45v42.9c0,15.8,12.81,28.6,28.6,28.6v-21.45c-3.95,0-7.15-3.2-7.15-7.15v-7.15h7.15Z"/>
      <path d="M409.54,395.28c-3.79,0-7.41.75-10.73,2.09-3.31-1.34-6.93-2.09-10.73-2.09-15.8,0-28.6,12.81-28.6,28.6v28.6h21.45v-28.6c0-1.97,1.6-3.58,3.58-3.58s3.58,1.6,3.58,3.58v28.6h21.45v-28.6c0-1.97,1.6-3.58,3.58-3.58s3.58,1.6,3.58,3.58v28.6h21.45v-28.6c0-15.8-12.81-28.6-28.6-28.6Z"/>
      <path d="M472.87,395.28c-15.8,0-28.6,12.81-28.6,28.6s12.81,28.6,28.6,28.6v-21.45c-3.95,0-7.15-3.2-7.15-7.15s3.2-7.15,7.15-7.15,7.15,3.2,7.15,7.15v28.6h21.45v-28.6c0-15.8-12.81-28.6-28.6-28.6Z"/>
      <rect x="511.43" y="395.96" width="21.45" height="57.2"/>
      <circle cx="522.16" cy="380.36" r="10.73"/>
      <rect x="541.14" y="370.77" width="21.45" height="82.23"/>
    </g>
  </g>
  <g id="arrows">
    <g>
      <path class="cls-3" d="M180.07,79.24l42.93,74.36c2.67-1.68,5.41-3.27,8.21-4.75l-42.93-74.36,10.93-6.31-35.51-26.81,5.44,44.17,10.93-6.31Z"/>
      <path class="cls-3" d="M104.01,158.78l74.36,42.93c1.48-2.8,3.07-5.54,4.75-8.21l-74.36-42.93,6.31-10.93-44.16-5.46,26.8,35.53,6.31-10.93Z"/>
      <path class="cls-3" d="M285.72,134.27c1.57-.06,3.15-.1,4.74-.1s3.17.04,4.74.1V48.38h12.62l-17.35-40.98-17.37,40.98h12.62v85.89Z"/>
      <path class="cls-3" d="M544,260.95l-40.98-17.37v12.62h-85.88c.06,1.57.1,3.15.1,4.74s-.04,3.17-.1,4.74h85.88v12.62l40.98-17.35Z"/>
      <path class="cls-3" d="M397.8,193.48c1.68,2.67,3.27,5.41,4.75,8.21l74.36-42.93,6.31,10.93,26.81-35.51-44.17,5.44,6.31,10.93-74.36,42.93Z"/>
      <path class="cls-3" d="M349.69,148.84c2.8,1.48,5.54,3.07,8.21,4.75l42.93-74.36,10.93,6.31,5.46-44.16-35.53,26.8,10.93,6.31-42.93,74.36Z"/>
      <path class="cls-3" d="M77.91,265.68h85.88c-.06-1.57-.1-3.15-.1-4.74s.04-3.17.1-4.74h-85.88v-12.62l-40.98,17.37,40.98,17.35v-12.62Z"/>
    </g>
  </g>
  <g id="qmail-logo">
    <path class="cls-2" d="M286.47,102.89c-86.5,0-156.63,70.13-156.63,156.63,0,69.65,45.46,128.66,108.32,149.03v-109.29c-8.9-10.81-14.25-24.65-14.25-39.74,0-34.55,28.01-62.55,62.55-62.55s62.55,28.01,62.55,62.55c0,21.78-11.14,40.95-28.02,52.15v-29.64h-69.06v171.89h69.06v-41.61c69.89-15.73,122.1-78.16,122.1-152.8,0-86.5-70.13-156.63-156.63-156.63Z"/>
    <rect class="cls-1" x="278.48" y="307.23" width="15.97" height="125.28" rx="7.98" ry="7.98"/>
  </g>
  <g id="DENIED">
    <path class="cls-4" d="M290.17,137.23c-67.93,0-123.19,55.26-123.19,123.19s55.26,123.19,123.19,123.19,123.19-55.26,123.19-123.19-55.26-123.19-123.19-123.19ZM401.36,260.43c0,24.9-8.23,47.91-22.1,66.46l-155.55-155.55c18.55-13.88,41.57-22.1,66.46-22.1,61.31,0,111.19,49.88,111.19,111.19ZM178.98,260.43c0-24.9,8.23-47.91,22.1-66.46l155.55,155.55c-18.55,13.88-41.56,22.1-66.46,22.1-61.31,0-111.19-49.88-111.19-111.19Z"/>
  </g>
</svg>